<svg xmlns="http://www.w3.org/2000/svg" viewBox="0 0 900 560" preserveAspectRatio="none">
  <defs>
    <linearGradient id="gold" x1="0" x2="1" y1="0" y2="1">
      <stop offset="0" stop-color="#fff0bd" stop-opacity=".82"/>
      <stop offset=".45" stop-color="#c99649" stop-opacity=".68"/>
      <stop offset="1" stop-color="#7a5227" stop-opacity=".38"/>
    </linearGradient>
    <filter id="soft" x="-12%" y="-12%" width="124%" height="124%">
      <feGaussianBlur stdDeviation=".8"/>
    </filter>
  </defs>
  <rect x="9" y="9" width="882" height="542" rx="18" fill="none" stroke="url(#gold)" stroke-width="1.2" opacity=".58"/>
  <rect x="22" y="22" width="856" height="516" rx="14" fill="none" stroke="#f3d08a" stroke-width=".55" opacity=".28"/>
  <g fill="none" stroke="url(#gold)" stroke-width="1.5" stroke-linecap="round" filter="url(#soft)">
    <path d="M38 132V46h86"/>
    <path d="M38 92c38-7 62-31 74-68"/>
    <path d="M76 44c7 28 29 50 62 64"/>
    <path d="M862 132V46h-86"/>
    <path d="M862 92c-38-7-62-31-74-68"/>
    <path d="M824 44c-7 28-29 50-62 64"/>
    <path d="M38 428v86h86"/>
    <path d="M38 468c38 7 62 31 74 68"/>
    <path d="M76 516c7-28 29-50 62-64"/>
    <path d="M862 428v86h-86"/>
    <path d="M862 468c-38 7-62 31-74 68"/>
    <path d="M824 516c-7-28-29-50-62-64"/>
  </g>
  <g fill="#e8bd74" opacity=".7">
    <circle cx="38" cy="38" r="2.8"/>
    <circle cx="862" cy="38" r="2.8"/>
    <circle cx="38" cy="522" r="2.8"/>
    <circle cx="862" cy="522" r="2.8"/>
  </g>
</svg>
